<svg xmlns="http://www.w3.org/2000/svg" width="20" height="20" fill="none" viewBox="0 0 20 20"><g fill="#1B69DE" fill-rule="evenodd" clip-path="url(#clip0_898_40566)" clip-rule="evenodd"><path d="M5.833 17.5a1.667 1.667 0 1 1 3.333 0 1.667 1.667 0 0 1-3.333 0M15 17.5a1.667 1.667 0 1 1 3.333 0 1.667 1.667 0 0 1-3.333 0M0 .833C0 .373.373 0 .833 0h3.334c.397 0 .739.28.817.67l.7 3.497h13.483a.833.833 0 0 1 .818.99l-1.334 6.997a2.5 2.5 0 0 1-2.491 2.013H8.074a2.5 2.5 0 0 1-2.491-2.012L4.19 5.199l-.014-.07-.693-3.462H.834A.833.833 0 0 1 0 .833m6.017 5 1.2 5.996a.83.83 0 0 0 .834.671h8.132a.834.834 0 0 0 .832-.668l1.144-5.999z"/></g><defs><clipPath id="clip0_898_40566"><path fill="#fff" d="M0 0h20v20H0z"/></clipPath></defs></svg>