<svg xmlns="http://www.w3.org/2000/svg" width="40" height="17" fill="none" viewBox="0 0 40 17"><path fill="#FFE2BA" stroke="#fff" d="M38.605 8.731c0 4.161-3.236 7.5-7.188 7.5s-7.189-3.339-7.189-7.5 3.237-7.5 7.189-7.5 7.188 3.34 7.188 7.5Z"/><path fill="#fff" d="M33.67 5.919c0-1.293-1.011-2.344-2.253-2.344s-2.253 1.051-2.253 2.344 1.01 2.343 2.253 2.343c1.242 0 2.252-1.051 2.252-2.343m-2.253 2.343c-2.236 0-4.055 1.893-4.055 4.22v.439c0 .133.055.26.15.349 1.098 1.023 2.484 1.586 3.905 1.586s2.807-.563 3.904-1.586a.48.48 0 0 0 .15-.35v-.439c0-2.326-1.819-4.219-4.054-4.219"/><path fill="#FFD49A" stroke="#fff" d="M27.071 8.731c0 4.161-3.237 7.5-7.188 7.5-3.952 0-7.189-3.339-7.189-7.5s3.237-7.5 7.189-7.5 7.188 3.34 7.188 7.5Z"/><path fill="#fff" d="M22.135 5.919c0-1.293-1.01-2.344-2.252-2.344S17.63 4.626 17.63 5.919s1.01 2.343 2.253 2.343c1.242 0 2.252-1.051 2.252-2.343m-2.252 2.343c-2.236 0-4.055 1.893-4.055 4.22v.439c0 .133.055.26.15.349 1.097 1.023 2.484 1.586 3.905 1.586s2.807-.563 3.904-1.586a.48.48 0 0 0 .15-.35v-.439c0-2.326-1.819-4.219-4.054-4.219"/><path fill="#FCC67C" stroke="#fff" d="M15.54 8.731c0 4.161-3.237 7.5-7.188 7.5-3.952 0-7.189-3.339-7.189-7.5s3.237-7.5 7.189-7.5 7.188 3.34 7.188 7.5Z"/><path fill="#fff" d="M10.604 5.919c0-1.293-1.01-2.344-2.253-2.344C7.11 3.575 6.1 4.626 6.1 5.919s1.01 2.343 2.252 2.343 2.253-1.051 2.253-2.343M8.35 8.262c-2.235 0-4.054 1.893-4.054 4.22v.439c0 .133.054.26.15.349 1.097 1.023 2.484 1.586 3.904 1.586s2.808-.563 3.905-1.586a.48.48 0 0 0 .15-.35v-.439c0-2.326-1.82-4.219-4.055-4.219"/></svg>