<svg xmlns="http://www.w3.org/2000/svg" width="202" height="48" fill="none" viewBox="0 0 110 26"><path fill="#1B69DE" d="M28.096 16.781V9.019h-1.574V6.988h1.574V3.82h2.398v3.167h1.574v2.031h-1.574v7.762zM38.011 8.977c-.926.07-1.574.308-1.941.7-.368.393-.545 1.093-.545 2.116v4.988h-2.397V6.987h2.25v1.135c.368-.434.75-.756 1.192-.967.426-.21.912-.308 1.456-.308v2.13zM46.012 16.781v-1.065c-.353.449-.75.771-1.206.995-.456.21-.97.322-1.544.322-1.295 0-2.28-.378-2.972-1.134-.691-.757-1.044-1.836-1.044-3.25V6.973h2.427v4.4c0 1.316.162 2.227.47 2.717.324.49.868.729 1.648.729.794 0 1.368-.266 1.721-.813s.515-1.471.515-2.774V6.988h2.353v9.793zM52.354 12.605c.088.7.382 1.261.882 1.668.515.406 1.162.616 1.971.616.53 0 1.015-.112 1.442-.322.426-.21.765-.519 1.015-.897h2.574c-.441 1.065-1.089 1.892-1.956 2.494-.868.588-1.869.883-3.016.883-.765 0-1.471-.127-2.118-.393a5.15 5.15 0 0 1-1.736-1.149 5.1 5.1 0 0 1-1.133-1.667 5 5 0 0 1-.397-1.947c0-.687.118-1.331.368-1.934a4.85 4.85 0 0 1 1.089-1.625 5.5 5.5 0 0 1 1.78-1.219 5.2 5.2 0 0 1 2.044-.42c.897 0 1.721.196 2.5.574.78.393 1.428.925 1.972 1.626.323.42.574.896.735 1.415.162.518.236 1.12.236 1.793 0 .056 0 .14-.015.238 0 .112-.015.196-.015.238h-8.223zm5.678-1.807c-.206-.659-.545-1.149-1.03-1.485-.486-.336-1.089-.519-1.824-.519-.633 0-1.206.183-1.707.547-.5.364-.838.854-1.015 1.457z"/><path fill="#22B573" d="M64.444 6.988v1.107A3.46 3.46 0 0 1 65.65 7.1a3.65 3.65 0 0 1 1.544-.322c.824 0 1.545.14 2.133.42s1.089.714 1.516 1.303c.411-.589.853-1.009 1.367-1.303q.75-.42 1.677-.42c1.266 0 2.222.378 2.898 1.134Q77.8 9.048 77.8 11.15v5.632h-2.353v-4.343c0-1.331-.147-2.228-.456-2.718-.31-.477-.839-.715-1.604-.715-.794 0-1.353.266-1.691.813-.339.532-.515 1.457-.515 2.76v4.203h-2.368v-4.343c0-1.317-.162-2.228-.471-2.704-.31-.477-.868-.715-1.648-.715-.794 0-1.368.266-1.72.813-.354.532-.53 1.457-.53 2.76v4.19h-2.31V6.987zM81.728 12.605c.088.7.382 1.261.883 1.668.514.406 1.162.616 1.97.616.53 0 1.016-.112 1.442-.322.427-.21.765-.519 1.015-.897h2.574c-.44 1.065-1.088 1.892-1.956 2.494-.868.588-1.868.883-3.016.883-.764 0-1.47-.127-2.118-.393a5.15 5.15 0 0 1-1.736-1.149 5.1 5.1 0 0 1-1.132-1.667 5 5 0 0 1-.397-1.947c0-.687.117-1.331.367-1.934a4.85 4.85 0 0 1 1.089-1.625 5.5 5.5 0 0 1 1.78-1.219 5.2 5.2 0 0 1 2.044-.42 5.6 5.6 0 0 1 2.501.574c.78.393 1.427.925 1.971 1.626.324.42.574.896.736 1.415.162.518.235 1.12.235 1.793 0 .056 0 .14-.015.238 0 .112-.014.196-.014.238h-8.223zm5.678-1.807c-.206-.659-.544-1.149-1.03-1.485-.485-.336-1.088-.519-1.824-.519-.632 0-1.206.183-1.706.547s-.839.854-1.015 1.457zM99.454 7.772v-3.95h2.354V16.78h-2.354v-.799a5.5 5.5 0 0 1-1.5.799 5.6 5.6 0 0 1-1.707.266 5.7 5.7 0 0 1-1.838-.294 4.8 4.8 0 0 1-1.545-.855 5.4 5.4 0 0 1-1.442-1.807 5.05 5.05 0 0 1-.5-2.228c0-.728.147-1.415.456-2.087a5.1 5.1 0 0 1 1.31-1.724c.47-.42 1-.742 1.603-.966a5.5 5.5 0 0 1 1.942-.337c.661 0 1.25.085 1.75.239.544.182 1.03.434 1.47.784m-.103 4.161c0-.84-.28-1.54-.838-2.087-.56-.56-1.25-.84-2.09-.84-.823 0-1.53.28-2.103.854-.588.574-.868 1.247-.868 2.045q0 1.24.883 2.06c.588.546 1.324.826 2.221.826.78 0 1.456-.28 2-.826a2.9 2.9 0 0 0 .795-2.032M105.351 13.53v.14q0 .652.353 1.052c.236.266.53.406.898.406.353 0 .632-.098.853-.308a1 1 0 0 0 .338-.771c0-.294-.088-.532-.25-.715s-.456-.378-.868-.56c-.235-.098-.588-.238-1.044-.42q-.684-.273-.883-.42a2.8 2.8 0 0 1-.838-.995 2.8 2.8 0 0 1-.265-1.247c0-.827.309-1.527.912-2.088.603-.574 1.339-.854 2.207-.854.912 0 1.647.252 2.177.756.529.504.823 1.205.867 2.116h-2.147v-.056c0-.309-.088-.56-.25-.743-.177-.182-.412-.266-.721-.266a.88.88 0 0 0-.662.266.9.9 0 0 0-.265.659c0 .434.456.826 1.383 1.19.25.098.427.169.559.225q1.325.567 1.809 1.219.486.65.486 1.765 0 1.365-.971 2.27c-.647.602-1.471.896-2.457.896s-1.794-.308-2.397-.939c-.604-.63-.942-1.485-1.001-2.55z"/><path fill="#1B69DE" d="m11.004 22.764-.618.588c.28-.252.544-.504.824-.756h-.015a1 1 0 0 0-.191.168M12.356 7.52c.014-.799.044-1.583.309-2.354.456-1.289 1.647-1.905 2.765-1.905.397 0 .736.266.81.602.058.308-.163.603-.56.757l-.397.126c-.72.224-1.133.714-1.191 1.4-.074.743-.03 1.486-.074 2.215-.015.238-.118.49-.265.686-.176.266-.5.28-.809.196a.65.65 0 0 1-.515-.56c-.044-.364-.044-.77-.073-1.163"/><path fill="#1B69DE" d="M21.344 5.979c0-.476-.059-.98-.177-1.443-.603-2.424-2.662-4.175-5.25-4.483-1.987-.239-3.708.336-5.135 1.653C9.532 2.869 8.93 4.298 8.914 5.95c-.014 2.858 0 5.716 0 8.574v.309a4 4 0 0 1 1.295.042c1.72.308 2.971 1.19 3.471 2.858.074.238.103.476.147.714v.435c-.044.224-.073.448-.132.658-.191.687-.574 1.275-1.103 1.765-.456.42-.912.841-1.368 1.275.103.07.176.127.264.183 1.427.966 3.016 1.33 4.737 1.036 3.045-.518 5.134-2.942 5.134-5.884-.015-3.979 0-7.958-.015-11.937m-2.074 6.067h-8.252c0-.07-.015-.14-.015-.197 0-2.06-.044-4.119.015-6.178.059-1.948 1.853-3.615 3.81-3.6.691 0 1.368 0 2 .28 1.368.616 2.163 1.653 2.383 3.068.044.308.044.616.044.924v5.366c.015.098.015.21.015.337"/><path fill="#22B573" d="M13.68 19.556c.059-.21.088-.435.133-.659v-.434c-.045-.238-.074-.477-.148-.715-.5-1.667-1.75-2.55-3.471-2.858a4 4 0 0 0-1.295-.042v.028c-.662.14-1.22.448-1.706.897-.191.168-.397.098-.559-.056-.838-.813-1.883-1.023-3.015-.827-1.721.308-2.972 1.191-3.472 2.858-.073.238-.103.477-.147.715v.434c.044.224.074.448.132.659.192.686.574 1.275 1.104 1.765 1.456 1.359 2.942 2.718 4.398 4.077.323.308.72.49 1.147.602h.339c.573-.112.985-.448 1.382-.84.618-.617 1.236-1.205 1.868-1.808-.735.687-1.47 1.36-2.206 2.046.735-.686 1.47-1.373 2.206-2.046l.618-.588.192-.182h.014c.456-.42.912-.84 1.368-1.275a3.6 3.6 0 0 0 1.118-1.751m-2.236-.14a3 3 0 0 1-.588.826c-1.133 1.107-2.28 2.2-3.428 3.293-.411.392-.676.392-1.088 0a371 371 0 0 1-3.427-3.293c-.456-.434-.75-.953-.75-1.583 0-1.289 1.264-2.158 2.588-1.793.515.14.942.434 1.31.784.808.743.853.715 1.647 0 .412-.378.883-.686 1.456-.812.78-.169 1.457.028 1.971.602.53.575.633 1.261.31 1.976"/></svg>